<?xml version="1.0" encoding="utf-8"?>
<!-- Generator: Adobe Illustrator 23.0.3, SVG Export Plug-In . SVG Version: 6.00 Build 0)  -->
<svg version="1.1" id="Toucan_Quango" xmlns="http://www.w3.org/2000/svg" xmlns:xlink="http://www.w3.org/1999/xlink" x="0px"
	 y="0px" viewBox="0 0 1507 585" style="enable-background:new 0 0 1507 585;" xml:space="preserve">
<style type="text/css">
	.st0{fill:none;}
	.st1{fill:none;stroke:#184A45;stroke-width:0.2;stroke-miterlimit:10;}
	.st2{fill:none;stroke:#184A45;stroke-width:2;stroke-miterlimit:10;}
	.st3{fill:#184A45;}
</style>
<g>
	<path class="st0" d="M1128.29,173.39h0.06c-0.02-0.01-0.04-0.01-0.06-0.02V173.39z"/>
	<path class="st1" d="M1128.29,272c23.89,1,42.16-14.9,47.88-35.98c1.13-4.15,1.73-8.51,1.73-13.02c0-9.48-1.61-20-7.61-27
		c-11.85-10.99-25.94-18.11-41.94-22.61"/>
	<g>
		<circle class="st2" cx="1150.62" cy="217.67" r="12"/>
	</g>
	<path class="st3" d="M1117.29,362c10-11,11.5-28.25,12.03-45.48c0.2-6.63,3.22-13.3,7.84-19.71c-4.78-5.6-7.97-12.6-8.87-20.3
		v-4.91c22.89,0,42.16-15.51,47.88-36.59c1.13-4.15,1.73-8.51,1.73-13.02c0-9.48-3-18.47-7.61-26c18.13,16.81,30.56,40.17,33,66.21
		c0.27,2.82,0.41,5.67,0.45,8.55c0.29,4.12,0.37,8.23,0.14,12.06c-2.69,45.95-34.22,84.59-76.59,95.18c-16,4-1010-3-1010-3
		c-1.7,0,475-6,482-7L1117.29,362z"/>
	<path class="st3" d="M1061.71,242.31c-30.41,2.34-58.52,5.4-64.85,29.85c0.19-56.03,45.11-101.94,101.42-103.04
		c9.7-0.19,21.05,1.57,30.01,3.89l-0.07,94.48c-0.14,1.34,0.06,3.15,0.07,4.52C1125.96,251.69,1091.18,240.04,1061.71,242.31z"/>
</g>
</svg>
